<?xml version="1.0"?>
<svg xmlns="http://www.w3.org/2000/svg" viewBox="0 0 64 64" width="512" height="512"><g id="flat"><rect x="17" y="11" width="30" height="22" style="fill:#6b809b"/><rect x="15" y="41" width="34" height="20" style="fill:#113142"/><rect x="15" y="33" width="34" height="8" style="fill:#e8e8e8"/><rect x="15" y="3" width="34" height="8" style="fill:#113142"/><rect x="21" y="15" width="22" height="14" style="fill:#bfbfbf"/><rect x="23.55" y="24.5" width="9.899" height="2" transform="translate(-9.684 27.621) rotate(-45)" style="fill:#fff"/><rect x="29.55" y="24.5" width="9.899" height="2" transform="translate(-7.926 31.864) rotate(-45)" style="fill:#fff"/><rect x="29" y="6" width="6" height="2" style="fill:#bfbfbf"/><rect x="25" y="6" width="2" height="2" style="fill:#bfbfbf"/><rect x="37" y="6" width="2" height="2" style="fill:#bfbfbf"/><rect x="23" y="45" width="18" height="10" style="fill:#98a1a1"/><rect x="26" y="48" width="2" height="4"/><rect x="36" y="49" width="2" height="2" style="fill:#113142"/><rect x="23" y="45" width="8" height="10" style="fill:#e8e8e8"/><path d="M54,51H49V49h5a1,1,0,0,0,1-1V44a3,3,0,0,1,3-3h4v2H58a1,1,0,0,0-1,1v4A3,3,0,0,1,54,51Z" style="fill:#7d8d9c"/><rect x="25" y="37" width="2" height="4" style="fill:#6b809b"/><rect x="33" y="37" width="4" height="4" style="fill:#6b809b"/><rect x="37" y="37" width="4" height="4" style="fill:#98a1a1"/><circle cx="26" cy="34" r="4" style="fill:#dd3e46"/></g></svg>
