<svg height="512" viewBox="0 0 64 64" width="512" xmlns="http://www.w3.org/2000/svg"><g id="arcade_game" data-name="arcade game"><path d="m11 10h42v44h-42z" fill="#e0e0e2"/><g fill="#3e3d42"><path d="m57 53v8h-4v-7-1z"/><path d="m7 53h4v8h-4z"/><path d="m9 3h46v7h-46z"/></g><path d="m11 54h42v7h-42z" fill="#57565c"/><path d="m34 24.5a1.5 1.5 0 1 0 -1.5 1.5 1.5 1.5 0 0 0 1.5-1.5zm5 0a1.5 1.5 0 1 0 -1.5 1.5 1.5 1.5 0 0 0 1.5-1.5zm2 0a1.5 1.5 0 1 0 1.5-1.5 1.5 1.5 0 0 0 -1.5 1.5zm9-11.5v24h-36v-24zm-25 11 3.47-2.24a5 5 0 1 0 -1.27 6.08z" fill="#57a4ff"/><path d="m34 24.5a1.5 1.5 0 1 0 -1.5 1.5 1.5 1.5 0 0 0 1.5-1.5zm5 0a1.5 1.5 0 1 0 -1.5 1.5 1.5 1.5 0 0 0 1.5-1.5zm2 0a1.5 1.5 0 1 0 1.5-1.5 1.5 1.5 0 0 0 -1.5 1.5zm9-11.5v24h-28l16-24zm-25 11 3.47-2.24a5 5 0 1 0 -1.27 6.08z" fill="#2488ff"/><path d="m28.47 21.76-3.47 2.24 2.2 3.84a5 5 0 1 1 1.27-6.08z" fill="#ffda44"/><circle cx="44" cy="43" fill="#ffda44" r="3"/><path d="m42 51h5v3h-5z" fill="#ff6243"/><path d="m33 51h5v3h-5z" fill="#ff6243"/><circle cx="42.5" cy="24.5" fill="#d80027" r="1.5"/><circle cx="37.5" cy="24.5" fill="#d80027" r="1.5"/><circle cx="32.5" cy="24.5" fill="#d80027" r="1.5"/><path d="m19 47h2v5h-2z" fill="#231f20"/><path d="m43 42h2v2h-2z"/><rect fill="#ff5023" height="3" rx="1.5" width="3" x="31" y="23"/><rect fill="#ff5023" height="3" rx="1.5" width="3" x="36" y="23"/><rect fill="#ff5023" height="3" rx="1.5" width="3" x="41" y="23"/><rect fill="#57565c" height="2" rx="1" width="10" x="11" y="4"/><path d="m11 10h42v1h-42z" fill="#2d2d30"/><path d="m23 54h-6a3 3 0 0 1 6 0z" fill="#cd2a00"/><circle cx="20" cy="45" fill="#ff6243" r="3"/><circle cx="18.5" cy="43.5" fill="#ff8169" r=".5"/><path d="m13 37h38v1h-38z" fill="#898890"/></g></svg>