<?xml version="1.0"?>
<svg xmlns="http://www.w3.org/2000/svg" height="512px" viewBox="-40 0 512 512" width="512px" class=""><g><path d="m376.503906 512c-30.421875 0-55.167968-24.746094-55.167968-55.167969 0-13.875-11.289063-25.167969-25.167969-25.167969-13.878907 0-25.167969 11.292969-25.167969 25.167969.003906 30.421875-24.746094 55.167969-55.164062 55.167969-30.421876 0-55.167969-24.746094-55.167969-55.167969 0-13.875-11.289063-25.167969-25.167969-25.167969-13.875 0-25.164062 11.292969-25.164062 25.167969 0 30.421875-24.75 55.167969-55.167969 55.167969-30.421875 0-55.167969-24.746094-55.167969-55.167969v-241c.00390625-119.050781 96.660156-215.832031 215.835938-215.832031 119.050781 0 215.832031 96.660156 215.832031 215.832031v241c0 30.421875-24.746094 55.167969-55.164063 55.167969zm0 0" fill="#f0f" data-original="#F0F" class="" data-old_color="#f0f" style="fill:#AAAAAA"/><path d="m271.003906 456.832031c0-13.875 11.289063-25.167969 25.164063-25.167969 13.878906 0 25.167969 11.292969 25.167969 25.167969 0 30.421875 24.75 55.167969 55.167968 55.167969 30.417969 0 55.167969-24.746094 55.167969-55.167969v-241c-.003906-119.171875-96.785156-215.832031-215.835937-215.832031v512c30.417968 0 55.167968-24.746094 55.167968-55.167969zm0 0" fill="#a000a0" data-original="#A000A0" class="" data-old_color="#a000a0" style="fill:#F3F3F3"/><path d="m331.253906 286.25c-38.828125 0-70.417968-31.589844-70.417968-70.417969s31.589843-70.417969 70.417968-70.417969c38.824219 0 70.414063 31.589844 70.414063 70.417969s-31.589844 70.417969-70.414063 70.417969zm0 0" fill="#cde3ff" data-original="#CDE3FF" class="" data-old_color="#cde3ff" style="fill:#FF0000"/><path d="m371.667969 215.832031c0 8.285157-6.714844 15-15 15-8.285157 0-15-6.714843-15-15 0-8.285156 6.714843-15 15-15 8.285156 0 15 6.714844 15 15zm0 0" fill="#003280" fill-rule="evenodd" data-original="#003280" class="active-path" data-old_color="#003280" style="fill:#FF0000"/><path d="m331.253906 286.25c-38.828125 0-70.417968-31.589844-70.417968-70.417969s31.589843-70.417969 70.417968-70.417969c38.824219 0 70.414063 31.589844 70.414063 70.417969s-31.589844 70.417969-70.414063 70.417969zm0 0" fill="#cde3ff" data-original="#CDE3FF" class="" data-old_color="#cde3ff" style="fill:#FF0000"/><path d="m371.667969 215.832031c0 8.285157-6.714844 15-15 15-8.285157 0-15-6.714843-15-15 0-8.285156 6.714843-15 15-15 8.285156 0 15 6.714844 15 15zm0 0" fill="#003280" fill-rule="evenodd" data-original="#003280" class="active-path" data-old_color="#003280" style="fill:#FF0000"/><path d="m145.417969 286.25c-38.828125 0-70.417969-31.589844-70.417969-70.417969s31.589844-70.417969 70.417969-70.417969 70.417969 31.589844 70.417969 70.417969-31.589844 70.417969-70.417969 70.417969zm0 0" fill="#edf6ff" data-original="#EDF6FF" class="" data-old_color="#edf6ff" style="fill:#FF0000"/><path d="m185.835938 215.832031c0 8.285157-6.714844 15-15 15-8.285157 0-15-6.714843-15-15 0-8.285156 6.714843-15 15-15 8.285156 0 15 6.714844 15 15zm0 0" fill="#0064ff" fill-rule="evenodd" data-original="#0064FF" class="" data-old_color="#0064ff" style="fill:#FF0000"/></g> </svg>
